<svg width="320" height="320" viewBox="0 0 320 320" fill="none" xmlns="http://www.w3.org/2000/svg">
  <rect width="320" height="320" rx="28" fill="#FFFFFF"/>
  <rect x="18" y="18" width="284" height="284" rx="22" stroke="#34D399" stroke-width="6"/>
  <rect x="56" y="56" width="72" height="72" rx="14" fill="#000000"/>
  <rect x="73" y="73" width="38" height="38" fill="#FFFFFF"/>
  <rect x="82" y="82" width="20" height="20" fill="#000000"/>
  <rect x="194" y="56" width="72" height="72" rx="14" fill="#000000"/>
  <rect x="211" y="73" width="38" height="38" fill="#FFFFFF"/>
  <rect x="220" y="82" width="20" height="20" fill="#000000"/>
  <rect x="56" y="194" width="72" height="72" rx="14" fill="#000000"/>
  <rect x="73" y="211" width="38" height="38" fill="#FFFFFF"/>
  <rect x="82" y="220" width="20" height="20" fill="#000000"/>
  <rect x="145" y="88" width="18" height="18" rx="4" fill="#000000"/>
  <rect x="145" y="117" width="18" height="18" rx="4" fill="#000000"/>
  <rect x="58" y="148" width="18" height="18" rx="4" fill="#000000"/>
  <rect x="93" y="148" width="18" height="18" rx="4" fill="#000000"/>
  <rect x="128" y="148" width="18" height="18" rx="4" fill="#000000"/>
  <rect x="163" y="148" width="18" height="18" rx="4" fill="#000000"/>
  <rect x="198" y="148" width="18" height="18" rx="4" fill="#000000"/>
  <rect x="164" y="184" width="18" height="18" rx="4" fill="#000000"/>
  <rect x="199" y="184" width="18" height="18" rx="4" fill="#FFFFFF"/>
  <rect x="234" y="184" width="18" height="18" rx="4" fill="#000000"/>
  <rect x="146" y="202" width="18" height="18" rx="4" fill="#000000"/>
  <rect x="181" y="202" width="18" height="18" rx="4" fill="#FFFFFF"/>
  <rect x="216" y="202" width="18" height="18" rx="4" fill="#000000"/>
  <rect x="251" y="202" width="18" height="18" rx="4" fill="#000000"/>
  <rect x="146" y="237" width="18" height="18" rx="4" fill="#000000"/>
  <rect x="181" y="237" width="18" height="18" rx="4" fill="#000000"/>
  <rect x="216" y="237" width="18" height="18" rx="4" fill="#FFFFFF"/>
  <rect x="251" y="237" width="18" height="18" rx="4" fill="#000000"/>
</svg>
